<svg width="90" height="86" viewBox="0 0 90 86" fill="none" xmlns="http://www.w3.org/2000/svg">
<rect width="89.6674" height="85.5828" rx="4" fill="#FFF2C6"/>
<path d="M46.5641 33.7914H28.5128C27.3159 33.7914 26.1681 34.2128 25.3218 34.963C24.4755 35.7131 24 36.7305 24 37.7914V45.7914C24 46.8522 24.4755 47.8697 25.3218 48.6198C26.1681 49.37 27.3159 49.7914 28.5128 49.7914H30.7692V57.7914C30.7692 58.3218 31.007 58.8305 31.4301 59.2056C31.8533 59.5807 32.4272 59.7914 33.0256 59.7914H37.5385C38.1369 59.7914 38.7108 59.5807 39.134 59.2056C39.5571 58.8305 39.7949 58.3218 39.7949 57.7914V49.7914H46.5641L57.8462 57.7914V25.7914L46.5641 33.7914ZM68 41.7914C68 45.2114 65.8338 48.3114 62.359 49.7914V33.7914C65.8113 35.2914 68 38.3914 68 41.7914Z" fill="#FFCE26"/>
</svg>
