<svg width="90" height="86" viewBox="0 0 90 86" fill="none" xmlns="http://www.w3.org/2000/svg">
<rect width="89.6674" height="85.5828" rx="4" fill="#C6FFD6"/>
<path d="M62.0171 52.2957V35.188H35.4051V52.2957H62.0171ZM62.0171 25.6837C63.0254 25.6837 63.9924 26.0842 64.7054 26.7972C65.4183 27.5101 65.8189 28.4771 65.8189 29.4854V52.2957C65.8189 53.3039 65.4183 54.2709 64.7054 54.9839C63.9924 55.6968 63.0254 56.0974 62.0171 56.0974H35.4051C34.3969 56.0974 33.4299 55.6968 32.7169 54.9839C32.004 54.2709 31.6034 53.3039 31.6034 52.2957V29.4854C31.6034 28.4771 32.004 27.5101 32.7169 26.7972C33.4299 26.0842 34.3969 25.6837 35.4051 25.6837H37.306V21.882H41.1077V25.6837H56.3146V21.882H60.1163V25.6837H62.0171ZM55.4212 41.0046L46.9814 49.4444L41.8871 44.3501L43.902 42.3352L46.9814 45.4146L53.4063 38.9897L55.4212 41.0046ZM27.8017 59.8991H54.4137V63.7008H27.8017C26.7934 63.7008 25.8265 63.3003 25.1135 62.5873C24.4005 61.8744 24 60.9074 24 59.8991V37.0888H27.8017V59.8991Z" fill="#14C946"/>
</svg>
