<svg width="274" height="69" viewBox="0 0 274 69" fill="none" xmlns="http://www.w3.org/2000/svg">
<g filter="url(#filter0_d_200_386)">
<rect x="3" width="271" height="66" rx="33" fill="#F9F9F9"/>
<rect x="3.5" y="0.5" width="270" height="65" rx="32.5" stroke="#166BDA"/>
</g>
<path d="M42.1009 40V25.4545H45.6165V37.1449H51.6676V40H42.1009ZM69.6499 32.7273C69.6499 34.3277 69.3421 35.6842 68.7266 36.7969C68.111 37.9096 67.2777 38.7547 66.2266 39.3324C65.1802 39.91 64.0059 40.1989 62.7038 40.1989C61.397 40.1989 60.2204 39.9077 59.174 39.3253C58.1276 38.7429 57.2966 37.8977 56.6811 36.7898C56.0703 35.6771 55.7649 34.3229 55.7649 32.7273C55.7649 31.1269 56.0703 29.7704 56.6811 28.6577C57.2966 27.545 58.1276 26.6998 59.174 26.1222C60.2204 25.5445 61.397 25.2557 62.7038 25.2557C64.0059 25.2557 65.1802 25.5445 66.2266 26.1222C67.2777 26.6998 68.111 27.545 68.7266 28.6577C69.3421 29.7704 69.6499 31.1269 69.6499 32.7273ZM66.0561 32.7273C66.0561 31.7803 65.9212 30.9801 65.6513 30.3267C65.3861 29.6733 65.0026 29.1785 64.5007 28.8423C64.0036 28.5062 63.4046 28.3381 62.7038 28.3381C62.0078 28.3381 61.4089 28.5062 60.907 28.8423C60.4051 29.1785 60.0192 29.6733 59.7493 30.3267C59.4841 30.9801 59.3516 31.7803 59.3516 32.7273C59.3516 33.6742 59.4841 34.4744 59.7493 35.1278C60.0192 35.7812 60.4051 36.276 60.907 36.6122C61.4089 36.9484 62.0078 37.1165 62.7038 37.1165C63.4046 37.1165 64.0036 36.9484 64.5007 36.6122C65.0026 36.276 65.3861 35.7812 65.6513 35.1278C65.9212 34.4744 66.0561 33.6742 66.0561 32.7273ZM84.2479 30.206C84.1674 29.9077 84.049 29.6449 83.8928 29.4176C83.7365 29.1856 83.5447 28.9891 83.3175 28.8281C83.0902 28.6671 82.8298 28.5464 82.5362 28.4659C82.2427 28.3807 81.9207 28.3381 81.5703 28.3381C80.8648 28.3381 80.254 28.5085 79.7379 28.8494C79.2266 29.1903 78.8312 29.6875 78.5518 30.3409C78.2725 30.9896 78.1328 31.7779 78.1328 32.706C78.1328 33.6387 78.2678 34.4342 78.5376 35.0923C78.8075 35.7505 79.1982 36.2524 79.7095 36.598C80.2209 36.9437 80.8411 37.1165 81.5703 37.1165C82.2143 37.1165 82.7588 37.0123 83.2038 36.804C83.6536 36.5909 83.9946 36.2902 84.2266 35.902C84.4586 35.5137 84.5746 35.0568 84.5746 34.5312L85.228 34.6094H81.6911V32.0455H87.9624V33.9702C87.9624 35.2723 87.6854 36.3873 87.1314 37.3153C86.5821 38.2434 85.8246 38.956 84.8587 39.4531C83.8975 39.9503 82.7919 40.1989 81.5419 40.1989C80.1546 40.1989 78.9354 39.8982 77.8842 39.2969C76.8331 38.6955 76.014 37.8385 75.4268 36.7259C74.8397 35.6084 74.5462 34.2827 74.5462 32.7486C74.5462 31.5554 74.7237 30.4972 75.0788 29.5739C75.4339 28.6458 75.9287 27.8598 76.5632 27.2159C77.2024 26.572 77.9411 26.0843 78.7791 25.7528C79.6219 25.4214 80.5286 25.2557 81.4993 25.2557C82.3421 25.2557 83.1257 25.3764 83.8501 25.6179C84.5793 25.8594 85.2232 26.2003 85.782 26.6406C86.3454 27.081 86.8023 27.6042 87.1527 28.2102C87.5031 28.8163 87.7209 29.4815 87.8061 30.206H84.2479ZM103.847 25.4545V40H100.331V25.4545H103.847ZM121.433 25.4545V40H118.45L112.662 31.6051H112.57V40H109.054V25.4545H112.08L117.804 33.8352H117.925V25.4545H121.433Z" fill="#063B82"/>
<path d="M235.601 22.6585C235.297 22.9632 235.125 23.3765 235.125 23.8074C235.125 24.2383 235.297 24.6515 235.601 24.9563L243.645 33L235.601 41.0438C235.305 41.3502 235.141 41.7607 235.145 42.1868C235.149 42.6129 235.32 43.0204 235.621 43.3217C235.922 43.623 236.33 43.7939 236.756 43.7976C237.182 43.8013 237.593 43.6375 237.899 43.3415L247.092 34.1489C247.396 33.8442 247.567 33.4309 247.567 33C247.567 32.5691 247.396 32.1559 247.092 31.8511L237.899 22.6585C237.594 22.3539 237.181 22.1827 236.75 22.1827C236.319 22.1827 235.906 22.3539 235.601 22.6585Z" fill="#063B82"/>
<defs>
<filter id="filter0_d_200_386" x="0" y="0" width="274" height="69" filterUnits="userSpaceOnUse" color-interpolation-filters="sRGB">
<feFlood flood-opacity="0" result="BackgroundImageFix"/>
<feColorMatrix in="SourceAlpha" type="matrix" values="0 0 0 0 0 0 0 0 0 0 0 0 0 0 0 0 0 0 127 0" result="hardAlpha"/>
<feOffset dx="-2" dy="2"/>
<feGaussianBlur stdDeviation="0.5"/>
<feComposite in2="hardAlpha" operator="out"/>
<feColorMatrix type="matrix" values="0 0 0 0 0.0862745 0 0 0 0 0.419608 0 0 0 0 0.854902 0 0 0 0.37 0"/>
<feBlend mode="normal" in2="BackgroundImageFix" result="effect1_dropShadow_200_386"/>
<feBlend mode="normal" in="SourceGraphic" in2="effect1_dropShadow_200_386" result="shape"/>
</filter>
</defs>
</svg>
