<svg width="29" height="29" viewBox="0 0 29 29" fill="none" xmlns="http://www.w3.org/2000/svg">
<path d="M13.5938 22.9583C13.5938 22.718 13.6892 22.4875 13.8592 22.3175C14.0291 22.1476 14.2596 22.0521 14.5 22.0521H21.75C21.8301 22.0521 21.907 22.0202 21.9636 21.9636C22.0203 21.9069 22.0521 21.8301 22.0521 21.75V7.24999C22.0521 7.16987 22.0203 7.09304 21.9636 7.03638C21.907 6.97973 21.8301 6.94791 21.75 6.94791H14.5C14.2596 6.94791 14.0291 6.85243 13.8592 6.68247C13.6892 6.51252 13.5938 6.28201 13.5938 6.04166C13.5938 5.8013 13.6892 5.5708 13.8592 5.40084C14.0291 5.23089 14.2596 5.13541 14.5 5.13541H21.75C22.9172 5.13541 23.8646 6.08274 23.8646 7.24999V21.75C23.8646 22.3108 23.6418 22.8487 23.2452 23.2452C22.8487 23.6418 22.3108 23.8646 21.75 23.8646H14.5C14.2596 23.8646 14.0291 23.7691 13.8592 23.5991C13.6892 23.4292 13.5938 23.1987 13.5938 22.9583Z" fill="#FF6767"/>
<path d="M18.864 15.8473C18.864 16.1678 18.7367 16.4751 18.5101 16.7017C18.2835 16.9283 17.9762 17.0556 17.6557 17.0556H11.788C11.7598 17.485 11.7252 17.9143 11.6841 18.3437L11.6479 18.7122C11.6344 18.8511 11.5876 18.9847 11.5114 19.1017C11.4353 19.2186 11.3321 19.3155 11.2105 19.384C11.0889 19.4526 10.9526 19.4908 10.8132 19.4954C10.6737 19.5001 10.5352 19.471 10.4093 19.4107C8.19987 18.353 6.20007 16.9043 4.50662 15.1344L4.47037 15.0969C4.31456 14.9349 4.22754 14.7188 4.22754 14.494C4.22754 14.2691 4.31456 14.0531 4.47037 13.891L4.50662 13.8535C6.20007 12.0837 8.19987 10.6349 10.4093 9.57725C10.5352 9.51693 10.6737 9.48785 10.8132 9.49248C10.9526 9.49712 11.0889 9.53533 11.2105 9.60388C11.3321 9.67242 11.4353 9.76928 11.5114 9.88623C11.5876 10.0032 11.6344 10.1368 11.6479 10.2757L11.6841 10.6442C11.7252 11.0728 11.7598 11.5021 11.788 11.9323H17.6557C17.9762 11.9323 18.2835 12.0596 18.5101 12.2862C18.7367 12.5128 18.864 12.8202 18.864 13.1406V15.8473Z" fill="#FF6767"/>
</svg>
