<svg width="90" height="86" viewBox="0 0 90 86" fill="none" xmlns="http://www.w3.org/2000/svg">
<rect width="89.6674" height="85.5828" rx="4" fill="#FFF2C6"/>
<g clip-path="url(#clip0_135_363)">
<path fill-rule="evenodd" clip-rule="evenodd" d="M41.5821 25.8739C42.4562 25.0004 43.5696 24.4057 44.7815 24.1648C45.9935 23.9239 47.2497 24.0476 48.3913 24.5204C49.533 24.9932 50.5089 25.7938 51.1957 26.821C51.8825 27.8483 52.2494 29.056 52.25 30.2917H39.75C39.75 28.6346 40.4071 27.0417 41.5821 25.8739ZM34.3929 30.2917C34.3929 27.2133 35.6157 24.261 37.7925 22.0842C39.9693 19.9075 42.9216 18.6846 46 18.6846C49.0784 18.6846 52.0307 19.9075 54.2075 22.0842C56.3843 24.261 57.6071 27.2133 57.6071 30.2917H62.0714C64.4394 30.2917 66.7104 31.2324 68.3849 32.9068C70.0593 34.5813 71 36.8523 71 39.2203V58.8631C71 61.2311 70.0593 63.5022 68.3849 65.1766C66.7104 66.851 64.4394 67.7917 62.0714 67.7917H29.9286C27.5606 67.7917 25.2895 66.851 23.6151 65.1766C21.9407 63.5022 21 61.2311 21 58.8631V39.2203C21 36.8523 21.9407 34.5813 23.6151 32.9068C25.2895 31.2324 27.5606 30.2917 29.9286 30.2917H34.3929ZM44.8036 41.2453C45.2305 41.0678 45.6915 40.9874 46.1533 41.0096C46.6151 41.0319 47.0663 41.1563 47.4742 41.374C47.8821 41.5917 48.2366 41.8972 48.5121 42.2685C48.7877 42.6397 48.9775 43.0675 49.0677 43.5209C49.158 43.9744 49.1465 44.4422 49.0341 44.8907C48.9217 45.3392 48.7112 45.7571 48.4177 46.1144C48.1243 46.4717 47.7552 46.7594 47.3371 46.9568C46.919 47.1542 46.4623 47.2564 46 47.256C45.408 47.256 44.8402 47.4912 44.4216 47.9098C44.003 48.3284 43.7679 48.8961 43.7679 49.4881V53.0596C43.7679 53.6516 44.003 54.2193 44.4216 54.6379C44.8402 55.0565 45.408 55.2917 46 55.2917C46.592 55.2917 47.1598 55.0565 47.5784 54.6379C47.997 54.2193 48.2321 53.6516 48.2321 53.0596V51.3846C49.5747 50.9714 50.7762 50.1938 51.703 49.1383C52.6298 48.0827 53.2454 46.7907 53.4814 45.406C53.7174 44.0212 53.5645 42.5982 53.0396 41.2953C52.5148 39.9923 51.6386 38.8606 50.5087 38.0261C49.3788 37.1916 48.0394 36.6871 46.6398 36.5687C45.2401 36.4503 43.835 36.7226 42.581 37.3555C41.3269 37.9883 40.2731 38.9567 39.5368 40.153C38.8005 41.3492 38.4107 42.7263 38.4107 44.131C38.4107 44.723 38.6459 45.2908 39.0645 45.7094C39.4831 46.128 40.0509 46.3631 40.6429 46.3631C41.2349 46.3631 41.8026 46.128 42.2212 45.7094C42.6398 45.2908 42.875 44.723 42.875 44.131C42.8752 43.5132 43.0586 42.9094 43.4018 42.3958C43.7451 41.8822 44.2329 41.4818 44.8036 41.2453ZM46.0071 63.7739C45.6554 63.7739 45.3071 63.7046 44.9821 63.57C44.6571 63.4353 44.3618 63.238 44.1131 62.9893C43.8644 62.7406 43.6671 62.4453 43.5325 62.1203C43.3979 61.7954 43.3286 61.447 43.3286 61.0953C43.3286 60.7435 43.3979 60.3952 43.5325 60.0702C43.6671 59.7453 43.8644 59.45 44.1131 59.2012C44.3618 58.9525 44.6571 58.7552 44.9821 58.6206C45.3071 58.486 45.6554 58.4167 46.0071 58.4167C46.7175 58.4167 47.3988 58.6989 47.9012 59.2012C48.4035 59.7036 48.6857 60.3849 48.6857 61.0953C48.6857 61.8057 48.4035 62.487 47.9012 62.9893C47.3988 63.4916 46.7175 63.7739 46.0071 63.7739Z" fill="#FFCE26"/>
</g>
<defs>
<clipPath id="clip0_135_363">
<rect width="50" height="50" fill="white" transform="translate(21 17.7915)"/>
</clipPath>
</defs>
</svg>
