<svg width="90" height="86" viewBox="0 0 90 86" fill="none" xmlns="http://www.w3.org/2000/svg">
<rect width="89.6674" height="85.5828" rx="4" fill="#FFF2C6"/>
<path d="M23.333 53.1248V38.2526C23.3327 38.1864 23.3493 38.1212 23.3813 38.0632C23.4133 38.0053 23.4596 37.9565 23.5158 37.9215C23.572 37.8865 23.6363 37.8666 23.7024 37.8635C23.7685 37.8604 23.8344 37.8743 23.8936 37.9038L40.5328 46.2248C41.6092 46.7631 42.7962 47.0434 43.9997 47.0434C45.2032 47.0434 46.3901 46.7631 47.4665 46.2248L64.1032 37.9064C64.1623 37.8764 64.2282 37.862 64.2945 37.8646C64.3608 37.8673 64.4252 37.887 64.4818 37.9217C64.5383 37.9564 64.5849 38.0051 64.6173 38.063C64.6496 38.121 64.6665 38.1863 64.6663 38.2526V53.1248C64.6663 54.4951 64.122 55.8093 63.1531 56.7782C62.1841 57.7472 60.87 58.2915 59.4997 58.2915H28.4997C27.1294 58.2915 25.8152 57.7472 24.8463 56.7782C23.8774 55.8093 23.333 54.4951 23.333 53.1248Z" fill="#EDBB0F"/>
<path d="M23.333 32.4582V34.8013C23.3331 34.8732 23.3532 34.9436 23.3911 35.0048C23.429 35.0659 23.4831 35.1153 23.5474 35.1474L40.5328 43.6414C41.6092 44.1798 42.7962 44.4601 43.9997 44.4601C45.2032 44.4601 46.3901 44.1798 47.4665 43.6414L64.4519 35.1474C64.5163 35.1153 64.5704 35.0659 64.6083 35.0048C64.6461 34.9436 64.6662 34.8732 64.6663 34.8013V32.4582C64.6663 31.0879 64.122 29.7737 63.1531 28.8048C62.1841 27.8358 60.87 27.2915 59.4997 27.2915H28.4997C27.1294 27.2915 25.8152 27.8358 24.8463 28.8048C23.8774 29.7737 23.333 31.0879 23.333 32.4582Z" fill="#FFD74E"/>
</svg>
