<svg width="90" height="86" viewBox="0 0 90 86" fill="none" xmlns="http://www.w3.org/2000/svg">
<rect width="89.6674" height="85.5828" rx="4" fill="#9BC6FF"/>
<path d="M39.2365 20.7572C40.3067 20.631 41.3851 20.9138 42.2558 21.5487C43.1265 22.1837 43.7253 23.1241 43.9322 24.1817L43.9885 24.5574L43.9997 24.7914V40.5414C43.9998 41.0925 44.2021 41.6244 44.5683 42.0363C44.9346 42.4481 45.4392 42.7112 45.9865 42.7757L46.2497 42.7914H61.5497C62.7432 42.7914 63.8878 43.2655 64.7317 44.1094C65.5756 44.9534 66.0497 46.098 66.0497 47.2914C66.0496 47.4626 66.03 47.6332 65.9912 47.7999C65.0908 51.6849 63.174 55.2608 60.4371 58.1613C57.7001 61.0619 54.2415 63.1829 50.4153 64.3071C46.589 65.4314 42.5328 65.5185 38.6618 64.5595C34.7908 63.6005 31.2443 61.63 28.3854 58.8496C25.5265 56.0692 23.4579 52.5789 22.3916 48.7362C21.3252 44.8934 21.2993 40.8363 22.3166 36.9802C23.3339 33.1242 25.3578 29.6078 28.181 26.7912C31.0042 23.9746 34.5253 21.9589 38.3837 20.9507L38.9912 20.7999L39.2365 20.7572Z" fill="#0059D1"/>
<path d="M48.5 23.6664V36.0414C48.5 36.6382 48.7371 37.2105 49.159 37.6324C49.581 38.0544 50.1533 38.2914 50.75 38.2914H63.125C63.4846 38.2913 63.839 38.205 64.1584 38.0397C64.4778 37.8745 64.7529 37.635 64.9608 37.3415C65.1686 37.048 65.303 36.7089 65.3527 36.3527C65.4025 35.9966 65.3661 35.6337 65.2468 35.2944C64.1293 32.1204 62.3141 29.2375 59.9349 26.8579C57.5557 24.4783 54.6731 22.6627 51.4993 21.5447C51.1599 21.4248 50.7967 21.3881 50.4402 21.4377C50.0838 21.4872 49.7444 21.6216 49.4506 21.8294C49.1568 22.0373 48.9171 22.3126 48.7517 22.6322C48.5863 22.9519 48.5 23.3065 48.5 23.6664Z" fill="#0059D1"/>
</svg>
