<svg width="29" height="29" viewBox="0 0 29 29" fill="none" xmlns="http://www.w3.org/2000/svg">
<path d="M13.0806 26.5833C12.5369 26.5833 12.0688 26.4021 11.6765 26.0396C11.2842 25.6771 11.0474 25.234 10.966 24.7104L10.6942 22.7167C10.4323 22.616 10.1858 22.4951 9.95465 22.3542C9.72346 22.2132 9.4967 22.0621 9.27436 21.901L7.40144 22.6864C6.89797 22.908 6.3945 22.9281 5.89103 22.7469C5.38756 22.5656 4.99485 22.2434 4.7129 21.7802L3.29311 19.3031C3.01117 18.8399 2.93061 18.3465 3.05145 17.8229C3.17228 17.2993 3.44415 16.8663 3.86707 16.5239L5.46811 15.3156C5.44797 15.1746 5.4379 15.0385 5.4379 14.9072V14.0916C5.4379 13.9611 5.44797 13.8253 5.46811 13.6844L3.86707 12.476C3.44415 12.1337 3.17228 11.7007 3.05145 11.1771C2.93061 10.6535 3.01117 10.1601 3.29311 9.69686L4.7129 7.21978C4.99485 6.75659 5.38756 6.43436 5.89103 6.25311C6.3945 6.07186 6.89797 6.092 7.40144 6.31353L9.27436 7.09895C9.49589 6.93784 9.72749 6.7868 9.96915 6.64582C10.2108 6.50485 10.4525 6.38402 10.6942 6.28332L10.966 4.28957C11.0466 3.76596 11.2834 3.32291 11.6765 2.96041C12.0696 2.59791 12.5377 2.41666 13.0806 2.41666H15.9202C16.4639 2.41666 16.9324 2.59791 17.3255 2.96041C17.7186 3.32291 17.955 3.76596 18.0348 4.28957L18.3067 6.28332C18.5685 6.38402 18.8154 6.50485 19.0474 6.64582C19.2794 6.7868 19.5057 6.93784 19.7264 7.09895L21.5994 6.31353C22.1028 6.092 22.6063 6.07186 23.1098 6.25311C23.6133 6.43436 24.006 6.75659 24.2879 7.21978L25.7077 9.69686C25.9896 10.1601 26.0702 10.6535 25.9494 11.1771C25.8285 11.7007 25.5567 12.1337 25.1337 12.476L23.5327 13.6844C23.5528 13.8253 23.5629 13.9615 23.5629 14.0928V14.9072C23.5629 15.0385 23.5428 15.1746 23.5025 15.3156L25.1035 16.5239C25.5264 16.8663 25.7983 17.2993 25.9192 17.8229C26.04 18.3465 25.9594 18.8399 25.6775 19.3031L24.2275 21.7802C23.9455 22.2434 23.5528 22.5656 23.0494 22.7469C22.5459 22.9281 22.0424 22.908 21.5389 22.6864L19.7264 21.901C19.5049 22.0621 19.2733 22.2132 19.0317 22.3542C18.79 22.4951 18.5483 22.616 18.3067 22.7167L18.0348 24.7104C17.9542 25.234 17.7178 25.6771 17.3255 26.0396C16.9332 26.4021 16.4647 26.5833 15.9202 26.5833H13.0806ZM14.5608 18.7292C15.7289 18.7292 16.7257 18.3163 17.5514 17.4906C18.3771 16.6649 18.79 15.668 18.79 14.5C18.79 13.3319 18.3771 12.3351 17.5514 11.5094C16.7257 10.6837 15.7289 10.2708 14.5608 10.2708C13.3726 10.2708 12.3705 10.6837 11.5545 11.5094C10.7385 12.3351 10.3308 13.3319 10.3317 14.5C10.3325 15.668 10.7405 16.6649 11.5557 17.4906C12.3709 18.3163 13.3726 18.7292 14.5608 18.7292Z" fill="#2C2C2C"/>
</svg>
