<svg width="90" height="86" viewBox="0 0 90 86" fill="none" xmlns="http://www.w3.org/2000/svg">
<rect width="89.6674" height="85.5828" rx="4" fill="#FFF2C6"/>
<g clip-path="url(#clip0_81_363)">
<path fill-rule="evenodd" clip-rule="evenodd" d="M42.9996 30.8314C44.4636 30.8314 45.8676 30.2498 46.9028 29.2146C47.938 28.1794 48.5196 26.7754 48.5196 25.3114C48.5196 23.8474 47.938 22.4434 46.9028 21.4082C45.8676 20.373 44.4636 19.7914 42.9996 19.7914C41.5356 19.7914 40.1315 20.373 39.0963 21.4082C38.0611 22.4434 37.4796 23.8474 37.4796 25.3114C37.4796 26.7754 38.0611 28.1794 39.0963 29.2146C40.1315 30.2498 41.5356 30.8314 42.9996 30.8314ZM34.322 38.8091C34.9561 37.0143 36.1312 35.4603 37.6853 34.3612C39.2394 33.262 41.0961 32.6718 42.9996 32.6718C44.9031 32.6718 46.7598 33.262 48.3139 34.3612C49.868 35.4603 51.043 37.0143 51.6771 38.8091H34.322ZM26.2227 42.9064C25.5913 42.963 25.006 43.2608 24.5885 43.7378C24.171 44.2148 23.9533 44.8344 23.9808 45.4677C24.0083 46.1011 24.2789 46.6994 24.7361 47.1385C25.1934 47.5775 25.8023 47.8234 26.4363 47.8251H29.3639L30.5467 63.9251C30.5774 64.3383 30.763 64.7246 31.0664 65.0067C31.3699 65.2888 31.7687 65.4459 32.183 65.4464H53.8161C54.231 65.4458 54.6302 65.2883 54.9338 65.0055C55.2373 64.7227 55.4226 64.3356 55.4524 63.9218L56.6353 47.8251H59.5629C60.1968 47.8234 60.8057 47.5775 61.263 47.1385C61.7203 46.6994 61.9908 46.1011 62.0183 45.4677C62.0458 44.8344 61.8282 44.2148 61.4106 43.7378C60.9931 43.2608 60.4078 42.963 59.7764 42.9064L59.5629 42.9162H26.4396L26.2227 42.9064ZM42.9996 48.3771C43.306 48.3774 43.6062 48.4634 43.8664 48.6254C44.1265 48.7874 44.3361 49.0189 44.4716 49.2938L45.3324 51.0352L47.2578 51.3178C47.5613 51.3619 47.8463 51.49 48.0808 51.6876C48.3152 51.8853 48.4896 52.1446 48.5843 52.4362C48.679 52.7278 48.6902 53.0401 48.6166 53.3378C48.5431 53.6355 48.3876 53.9066 48.168 54.1205L46.7749 55.4775L47.1034 57.3931C47.155 57.695 47.1211 58.0053 47.0056 58.289C46.8902 58.5726 46.6977 58.8184 46.45 58.9985C46.2022 59.1786 45.9091 59.2858 45.6036 59.3081C45.2982 59.3304 44.9925 59.2669 44.7213 59.1247L42.9996 58.2178L41.2778 59.1214C41.0066 59.2636 40.701 59.3271 40.3955 59.3048C40.0901 59.2825 39.7969 59.1753 39.5492 58.9952C39.3014 58.8151 39.109 58.5694 38.9935 58.2857C38.878 58.002 38.8442 57.6917 38.8957 57.3898L39.2243 55.4742L37.8311 54.1172C37.6115 53.9033 37.4561 53.6322 37.3825 53.3345C37.3089 53.0369 37.3201 52.7245 37.4148 52.4329C37.5095 52.1413 37.684 51.882 37.9184 51.6843C38.1528 51.4867 38.4378 51.3586 38.7413 51.3145L40.6667 51.0352L41.5276 49.2905C41.663 49.0156 41.8726 48.7841 42.1328 48.6221C42.3929 48.4601 42.6931 48.3774 42.9996 48.3771Z" fill="#FFCE26"/>
</g>
<defs>
<clipPath id="clip0_81_363">
<rect width="46" height="46" fill="white" transform="translate(20 19.7914)"/>
</clipPath>
</defs>
</svg>
