<svg width="24" height="24" viewBox="0 0 24 24" fill="none" xmlns="http://www.w3.org/2000/svg">
<path d="M22.8 23.0717C22.64 23.0717 22.49 23.0407 22.35 22.9789C22.21 22.9171 22.08 22.8243 21.96 22.7007L19.2 19.8566H7.2C6.54 19.8566 5.9752 19.6146 5.5056 19.1307C5.036 18.6468 4.8008 18.0644 4.8 17.3835V16.1469H18C18.66 16.1469 19.2252 15.905 19.6956 15.4211C20.166 14.9372 20.4008 14.3547 20.4 13.6738V5.01789H21.6C22.26 5.01789 22.8252 5.26026 23.2956 5.74499C23.766 6.22972 24.0008 6.81173 24 7.49101V21.8042C24 22.1751 23.88 22.4793 23.64 22.7168C23.4 22.9542 23.12 23.0725 22.8 23.0717ZM1.2 16.8889C0.88 16.8889 0.6 16.7706 0.36 16.534C0.12 16.2974 0 15.9932 0 15.6214V2.54477C0 1.86467 0.2352 1.28266 0.7056 0.798752C1.176 0.314845 1.7408 0.0724796 2.4 0.0716553H15.6C16.26 0.0716553 16.8252 0.314021 17.2956 0.798752C17.766 1.28348 18.0008 1.86549 18 2.54477V11.2007C18 11.8808 17.7652 12.4632 17.2956 12.9479C16.826 13.4327 16.2608 13.6746 15.6 13.6738H4.8L2.04 16.5179C1.92 16.6415 1.79 16.7343 1.65 16.7961C1.51 16.8579 1.36 16.8889 1.2 16.8889Z" fill="#063B82"/>
</svg>
