<svg width="90" height="86" viewBox="0 0 90 86" fill="none" xmlns="http://www.w3.org/2000/svg">
<rect width="89.6674" height="85.5828" rx="4" fill="#FFF2C6"/>
<path d="M62.4997 51.958V35.458H36.833V51.958H62.4997ZM62.4997 26.2914C63.4721 26.2914 64.4048 26.6777 65.0924 27.3653C65.78 28.053 66.1663 28.9856 66.1663 29.958V51.958C66.1663 52.9305 65.78 53.8631 65.0924 54.5508C64.4048 55.2384 63.4721 55.6247 62.4997 55.6247H36.833C35.8605 55.6247 34.9279 55.2384 34.2403 54.5508C33.5526 53.8631 33.1663 52.9305 33.1663 51.958V29.958C33.1663 28.9856 33.5526 28.053 34.2403 27.3653C34.9279 26.6777 35.8605 26.2914 36.833 26.2914H38.6663V22.6247H42.333V26.2914H56.9997V22.6247H60.6663V26.2914H62.4997ZM29.4997 59.2914H55.1663V62.958H29.4997C28.5272 62.958 27.5946 62.5717 26.9069 61.8841C26.2193 61.1965 25.833 60.2638 25.833 59.2914V37.2914H29.4997V59.2914ZM58.833 48.2914H51.4997V40.958H58.833V48.2914Z" fill="#FFCE26"/>
</svg>
