<svg width="90" height="86" viewBox="0 0 90 86" fill="none" xmlns="http://www.w3.org/2000/svg">
<rect width="89.6674" height="85.5828" rx="4" fill="#C6FFD6"/>
<path d="M59.5833 24.0414H30.4167C28.125 24.0414 26.25 25.9164 26.25 28.208V57.3747C26.25 59.6664 28.125 61.5414 30.4167 61.5414H59.5833C61.875 61.5414 63.75 59.6664 63.75 57.3747V28.208C63.75 25.9164 61.875 24.0414 59.5833 24.0414ZM34.5833 32.3747H38.75V36.5414H34.5833V32.3747ZM34.5833 40.708H38.75V44.8747H34.5833V40.708ZM34.5833 49.0414H38.75V53.208H34.5833V49.0414ZM55.4167 53.208H42.9167V49.0414H55.4167V53.208ZM55.4167 44.8747H42.9167V40.708H55.4167V44.8747ZM55.4167 36.5414H42.9167V32.3747H55.4167V36.5414Z" fill="#14C946"/>
</svg>
