<svg width="21" height="24" viewBox="0 0 21 24" fill="none" xmlns="http://www.w3.org/2000/svg">
<path d="M0 20.994V9.16541C0 8.74922 0.0931872 8.35494 0.279562 7.98256C0.465937 7.61018 0.72275 7.30351 1.05 7.06256L8.925 1.14827C9.38437 0.797797 9.90937 0.622559 10.5 0.622559C11.0906 0.622559 11.6156 0.797797 12.075 1.14827L19.95 7.06256C20.2781 7.30351 20.5354 7.61018 20.7217 7.98256C20.9081 8.35494 21.0009 8.74922 21 9.16541V20.994C21 21.7168 20.7427 22.3359 20.2282 22.8511C19.7137 23.3663 19.096 23.6234 18.375 23.6226H14.4375C14.0656 23.6226 13.7541 23.4964 13.503 23.244C13.2519 22.9917 13.1259 22.6798 13.125 22.3083V15.7368C13.125 15.3645 12.999 15.0525 12.747 14.8011C12.495 14.5496 12.1835 14.4234 11.8125 14.4226H9.1875C8.81562 14.4226 8.50412 14.5487 8.253 14.8011C8.00187 15.0534 7.87587 15.3653 7.875 15.7368V22.3083C7.875 22.6806 7.749 22.993 7.497 23.2454C7.245 23.4977 6.9335 23.6234 6.5625 23.6226H2.625C1.90312 23.6226 1.28537 23.3654 0.77175 22.8511C0.258125 22.3367 0.000875 21.7177 0 20.994Z" fill="#063B82"/>
</svg>
