<svg width="24" height="25" viewBox="0 0 24 25" fill="none" xmlns="http://www.w3.org/2000/svg">
<path fill-rule="evenodd" clip-rule="evenodd" d="M9.87943 3.56243C10.299 3.13555 10.8334 2.84488 11.4151 2.72714C11.9969 2.60941 12.5999 2.6699 13.1478 2.90096C13.6958 3.13203 14.1643 3.5233 14.4939 4.02534C14.8236 4.52738 14.9997 5.11765 15 5.72156H9C9 4.91166 9.31543 4.13319 9.87943 3.56243ZM6.42857 5.72156C6.42857 4.21705 7.01556 2.77417 8.0604 1.71033C9.10525 0.646489 10.5224 0.0488281 12 0.0488281C13.4776 0.0488281 14.8947 0.646489 15.9396 1.71033C16.9844 2.77417 17.5714 4.21705 17.5714 5.72156H19.7143C20.8509 5.72156 21.941 6.18129 22.7447 6.99963C23.5485 7.81798 24 8.92788 24 10.0852V19.6852C24 20.8425 23.5485 21.9524 22.7447 22.7707C21.941 23.5891 20.8509 24.0488 19.7143 24.0488H4.28571C3.14907 24.0488 2.05898 23.5891 1.25526 22.7707C0.451529 21.9524 0 20.8425 0 19.6852L0 10.0852C0 8.92788 0.451529 7.81798 1.25526 6.99963C2.05898 6.18129 3.14907 5.72156 4.28571 5.72156H6.42857ZM11.4257 11.0749C11.6306 10.9881 11.8519 10.9488 12.0736 10.9597C12.2953 10.9706 12.5118 11.0314 12.7076 11.1378C12.9034 11.2442 13.0736 11.3935 13.2058 11.5749C13.3381 11.7564 13.4292 11.9654 13.4725 12.187C13.5158 12.4087 13.5103 12.6373 13.4564 12.8565C13.4024 13.0757 13.3014 13.2799 13.1605 13.4545C13.0197 13.6292 12.8425 13.7698 12.6418 13.8663C12.4411 13.9627 12.2219 14.0127 12 14.0125C11.7158 14.0125 11.4433 14.1274 11.2424 14.332C11.0415 14.5366 10.9286 14.814 10.9286 15.1034V16.8488C10.9286 17.1382 11.0415 17.4156 11.2424 17.6202C11.4433 17.8248 11.7158 17.9397 12 17.9397C12.2842 17.9397 12.5567 17.8248 12.7576 17.6202C12.9585 17.4156 13.0714 17.1382 13.0714 16.8488V16.0302C13.7158 15.8283 14.2926 15.4482 14.7374 14.9324C15.1823 14.4165 15.4778 13.785 15.5911 13.1083C15.7044 12.4316 15.6309 11.7361 15.379 11.0993C15.1271 10.4625 14.7065 9.90942 14.1642 9.50158C13.6218 9.09374 12.9789 8.84716 12.3071 8.78929C11.6352 8.73142 10.9608 8.86453 10.3589 9.1738C9.75692 9.48308 9.25108 9.95638 8.89767 10.541C8.54426 11.1257 8.35714 11.7987 8.35714 12.4852C8.35714 12.7745 8.47003 13.052 8.67096 13.2566C8.87189 13.4612 9.14441 13.5761 9.42857 13.5761C9.71273 13.5761 9.98525 13.4612 10.1862 13.2566C10.3871 13.052 10.5 12.7745 10.5 12.4852C10.5001 12.1833 10.5881 11.8882 10.7529 11.6371C10.9176 11.3861 11.1518 11.1905 11.4257 11.0749ZM12.0034 22.0852C11.8346 22.0852 11.6674 22.0513 11.5114 21.9855C11.3554 21.9198 11.2137 21.8233 11.0943 21.7018C10.9749 21.5802 10.8802 21.4359 10.8156 21.2771C10.751 21.1182 10.7177 20.948 10.7177 20.7761C10.7177 20.6042 10.751 20.434 10.8156 20.2751C10.8802 20.1163 10.9749 19.972 11.0943 19.8504C11.2137 19.7289 11.3554 19.6324 11.5114 19.5667C11.6674 19.5009 11.8346 19.467 12.0034 19.467C12.3444 19.467 12.6714 19.6049 12.9126 19.8504C13.1537 20.0959 13.2891 20.4289 13.2891 20.7761C13.2891 21.1233 13.1537 21.4563 12.9126 21.7018C12.6714 21.9473 12.3444 22.0852 12.0034 22.0852Z" fill="#063B82"/>
</svg>
