<svg width="28" height="29" viewBox="0 0 28 29" fill="none" xmlns="http://www.w3.org/2000/svg">
<path fill-rule="evenodd" clip-rule="evenodd" d="M5.69238 4.01913C5.69238 2.25596 13.6619 0.909485 13.6619 0.909485C13.6619 0.909485 21.6315 2.25596 21.6315 4.01913C21.6315 6.36977 20.1818 7.36104 20.1818 7.36104H7.14208C7.14208 7.36104 5.69238 6.36977 5.69238 4.01913ZM15.18 3.61686C15.18 3.61686 14.0665 3.21155 13.6619 2.807C13.2574 3.21155 12.1439 3.61686 12.1439 3.61686C12.1439 3.61686 12.4475 5.84302 13.6619 5.84302C14.8764 5.84302 15.18 3.61686 15.18 3.61686ZM19.5928 10.2301C20.6478 9.40656 20.4839 8.49955 20.4839 8.49955H6.84C6.84 8.49955 6.6753 9.40656 7.73107 10.2301C7.53672 11.1168 7.54366 12.0358 7.75139 12.9195C7.95912 13.8032 8.36234 14.6291 8.93139 15.3364C9.50044 16.0437 10.2208 16.6144 11.0396 17.0065C11.8583 17.3986 12.7545 17.6021 13.6623 17.6021C14.5701 17.6021 15.4663 17.3986 16.2851 17.0065C17.1038 16.6144 17.8242 16.0437 18.3933 15.3364C18.9623 14.6291 19.3655 13.8032 19.5733 12.9195C19.781 12.0358 19.7879 11.1168 19.5936 10.2301M13.6619 11.5356C15.7272 11.5356 17.1716 11.2972 18.1795 10.9542C18.2033 11.1444 18.2155 11.3382 18.216 11.5356C18.2151 12.1576 18.0868 12.7728 17.839 13.3434C17.5911 13.9139 17.2291 14.4276 16.7751 14.8528C16.3211 15.2781 15.7848 15.6058 15.1993 15.8157C14.6138 16.0257 13.9914 16.1135 13.3707 16.0737C12.7499 16.034 12.1439 15.8674 11.59 15.5844C11.0361 15.3014 10.546 14.9079 10.15 14.4282C9.754 13.9485 9.46047 13.3928 9.28751 12.7953C9.11455 12.1978 9.06582 11.5712 9.14434 10.9542C10.1531 11.2972 11.5959 11.5356 13.6619 11.5356Z" fill="#063B82"/>
<path fill-rule="evenodd" clip-rule="evenodd" d="M8.25723 17.6077L13.1733 21.7496C13.3101 21.8648 13.4833 21.928 13.6621 21.928C13.841 21.928 14.0141 21.8648 14.1509 21.7496L19.067 17.6077C19.067 17.6077 27.3242 20.183 27.3242 23.2752V28.2338H0V23.2752C0 20.183 8.25723 17.6077 8.25723 17.6077ZM5.10432 24.5959C4.94583 24.5506 4.8064 24.4549 4.70713 24.3233C4.60785 24.1917 4.55411 24.0313 4.55404 23.8665V22.9208H9.86708V23.8665C9.86701 24.0313 9.81327 24.1917 9.71399 24.3233C9.61471 24.4549 9.47529 24.5506 9.3168 24.5959L7.41928 25.1386C7.28287 25.1776 7.13825 25.1776 7.00183 25.1386L5.10432 24.5959ZM20.9979 21.4976C20.991 21.4697 20.9749 21.4448 20.9522 21.4271C20.9295 21.4093 20.9015 21.3997 20.8727 21.3997C20.8439 21.3997 20.8159 21.4093 20.7932 21.4271C20.7705 21.4448 20.7544 21.4697 20.7474 21.4976L20.3899 22.6513C20.3821 22.6786 20.3657 22.7026 20.3431 22.7199C20.3206 22.7371 20.2931 22.7466 20.2647 22.747H19.1065C18.9797 22.747 18.9266 22.9177 19.0298 22.9959L19.9664 23.7094C20.012 23.7443 20.0317 23.8065 20.0142 23.8627L19.6567 25.0164C19.6173 25.1439 19.7554 25.2494 19.8586 25.1712L20.7952 24.4578C20.8174 24.4405 20.8446 24.4312 20.8727 24.4312C20.9007 24.4312 20.928 24.4405 20.9501 24.4578L21.8867 25.1712C21.9899 25.2494 22.1281 25.1439 22.0894 25.0171L21.7311 23.8635C21.7228 23.8359 21.7229 23.8066 21.7315 23.7791C21.74 23.7517 21.7565 23.7274 21.7789 23.7094L22.7155 22.9959C22.8188 22.9177 22.7656 22.747 22.6389 22.747H21.4799C21.4516 22.7466 21.4242 22.7372 21.4016 22.7202C21.3791 22.7031 21.3626 22.6792 21.3546 22.6521L20.9979 21.4976Z" fill="#063B82"/>
</svg>
